<svg width="760" height="760" viewBox="0 0 760 760" fill="none" xmlns="http://www.w3.org/2000/svg">
<g clip-path="url(#clip0_57_14)">
<path d="M559.771 100.328C594.35 98.2144 626.936 98.6155 661.453 99.0476H662.967C673.607 111.006 688.495 117.764 704.325 117.764C735.012 117.764 760 92.7985 760 62.1242C760 31.4499 735.027 6.5 704.325 6.5C686.441 6.5 669.87 15.0018 659.384 29.4286C650.735 29.552 642.21 29.6137 633.701 29.6755C607.477 29.876 580.358 30.0921 551.57 32.3757C479.402 38.0847 417.055 107.519 415.403 183.988C413.441 275.055 356.793 339.073 273.906 344.751C256.501 278.989 194.139 234.567 126.665 241.294C57.3226 247.991 1.70953 306.979 0.0416008 375.61C-1.65722 445.893 48.8594 507.041 117.538 517.857C187.73 528.828 252.532 486.442 273.412 416.515C369.179 422.501 413.812 503.847 415.495 582.893C417.364 670.318 496.498 729.476 569.238 729.862L659.214 730.34C669.7 744.89 686.318 753.5 704.294 753.5C734.981 753.5 759.969 728.55 759.969 697.876C759.969 667.201 734.997 642.252 704.294 642.252C687.955 642.252 672.727 649.365 662.086 661.894H660.882C628.11 662.357 597.13 662.696 562.211 660.783C512.961 658.113 482.058 609.895 481.641 566.769C481.1 508.383 463.834 462.711 424.298 416.252L661.808 415.666C672.465 428.38 687.785 435.601 704.294 435.601C734.981 435.601 759.969 410.636 759.969 379.961C759.969 349.287 734.997 324.337 704.294 324.337C686.611 324.337 670.133 332.685 659.631 346.834L423.233 346.309C464.051 299.819 482.336 251.586 483.896 187.475C484.853 148.346 516.235 102.905 559.756 100.267L559.771 100.328ZM210.448 380.039C210.448 419.091 178.634 450.876 139.545 450.876C100.457 450.876 68.6275 419.091 68.6275 380.039C68.6275 340.986 100.442 309.185 139.545 309.185C178.649 309.185 210.448 340.97 210.448 380.039Z" fill="black"/>
</g>
<defs>
<clipPath id="clip0_57_14">
<rect width="760" height="760" fill="white"/>
</clipPath>
</defs>
</svg>
