<svg width="760" height="760" viewBox="0 0 760 760" fill="none" xmlns="http://www.w3.org/2000/svg">
<path d="M0 615.224C0 586.628 23.1907 563.447 51.7985 563.447C80.4062 563.447 103.597 586.628 103.597 615.224C103.597 643.819 80.4062 667 51.7985 667C23.1907 667 0 643.819 0 615.224Z" fill="black"/>
<path d="M758.991 134.637C758.69 133.115 758.123 131.717 757.699 130.266C757.167 128.497 756.76 126.692 756.052 124.975C755.344 123.259 754.37 121.719 753.485 120.109C752.742 118.764 752.14 117.349 751.29 116.057C749.414 113.261 747.307 110.66 744.935 108.289C744.899 108.253 744.864 108.2 744.829 108.165C744.793 108.129 744.758 108.112 744.722 108.076C742.35 105.705 739.73 103.582 736.933 101.724C735.623 100.857 734.207 100.255 732.844 99.5119C731.251 98.6448 729.71 97.6715 728.011 96.9637C726.276 96.2382 724.453 95.8312 722.665 95.3004C721.213 94.8757 719.85 94.3272 718.345 94.0264C714.982 93.3539 711.6 93 708.184 93H469.922C441.314 93 418.123 116.181 418.123 144.776C418.123 173.372 441.314 196.553 469.922 196.553H583.131L464.363 315.271C427.647 351.971 398.296 392.741 369.901 432.166C313.269 510.804 275.793 559.006 221.286 559.006C192.678 559.006 169.487 582.186 169.487 610.782C169.487 639.378 192.678 662.558 221.286 662.558C331.645 662.558 393.835 576.205 453.989 492.666C479.977 456.585 506.85 419.266 537.635 388.494L656.403 269.776V382.955C656.403 411.551 679.594 434.732 708.202 434.732C736.809 434.732 760 411.551 760 382.955V144.776C760 141.379 759.646 137.981 758.991 134.637Z" fill="black"/>
</svg>
