<svg width="760" height="760" viewBox="0 0 760 760" fill="none" xmlns="http://www.w3.org/2000/svg">
<g clip-path="url(#clip0_45_828)">
<path d="M749.879 337.737L641.29 239.238L538.219 147.081L445.539 65.9764C405.448 30.8653 352.045 32.4969 312.277 68.0852L12.3185 336.752C-2.77707 350.236 -3.09986 373.325 6.47705 387.779C16.054 401.925 40.5573 407.929 56.1448 397.692L82.2776 380.622V623.936C82.2776 674.979 120.754 717.063 173.497 717.71L298.642 719.495C318.933 719.819 335.489 703.24 335.643 683.414L336.781 490.173L421.343 489.849L422.973 681.475C423.127 700.485 439.037 717.387 456.238 717.387L583.167 718.033C624.887 718.356 674.878 686.986 675.032 640.176L676.661 378.667L710.096 399.955C724.207 408.898 750.017 396.384 756.197 383.7C762.361 370.863 761.562 348.266 749.864 337.706L749.879 337.737ZM583.029 644.917L499.265 644.101L498.128 489.865C497.805 454.6 471.026 421.767 432.55 417.057C394.073 412.346 357.718 413.162 322.346 418.842C284.038 425.015 260.334 461.096 260.181 498.315L259.858 644.424H179.353C168.962 642.962 156.464 631.094 156.464 618.749L156.787 313.847L363.744 124.177C375.765 117.358 390.046 118.158 398.961 128.41L601.86 310.276L602.029 617.779C602.029 628.339 591.484 640.376 583.044 644.917H583.029Z" fill="black"/>
<path d="M602.013 130.18C602.013 104.212 623.043 83.1548 648.976 83.1548C674.909 83.1548 695.938 104.212 695.938 130.18C695.938 156.148 674.909 177.205 648.976 177.205C623.043 177.205 602.013 156.148 602.013 130.18Z" fill="black"/>
</g>
<defs>
<clipPath id="clip0_45_828">
<rect width="760" height="760" fill="white"/>
</clipPath>
</defs>
</svg>
