<svg width="760" height="760" viewBox="0 0 760 760" fill="none" xmlns="http://www.w3.org/2000/svg">
<path d="M614.955 434.24C594.733 312.535 636.76 196.827 465.815 113.33C467.881 72.7572 456.662 35.8301 425.537 14.9936C395.046 -5.37584 354.904 -5.37588 322.376 17.359C294.72 36.6135 280.666 73.5558 286.517 112.863C97.5516 207.419 169.437 348.694 136.744 446.88C122.207 490.286 48.4215 515.702 71.177 583.741C77.6613 603.161 99.9342 628.729 127.425 629.361L253.824 631.576H317.506C317.506 631.26 317.34 631.109 317.34 630.793L439.004 631.26V631.576H501.404V631.109L624.018 630.16C654.192 629.843 678.682 601.429 684.85 579.643C704.287 509.872 624.018 489.035 615.015 434.27L614.955 434.24ZM372.125 62.3315C386.662 60.5988 403.249 72.4409 400.716 91.6954L352.37 92.3282C347.152 80.0191 358.372 63.9134 372.125 62.3315ZM152.352 564.456C146.983 564.456 137.015 560.193 135.13 557.827C132.597 554.663 138.448 545.835 141.766 542.987C209.7 486.323 213.018 419.083 210.967 332.257C208.599 240.7 271.95 168.412 360.905 159.403C447.644 150.725 536.283 213.068 540.536 304.309L545.753 410.074C548.754 473.05 580.196 511.725 626.807 563.342L152.352 564.441V564.456Z" fill="black"/>
<path d="M546.749 71.5821C595.125 -2.06129 760.52 259.743 682.331 276.045C624.319 288.143 665.894 197.852 554.138 111.492C543.054 102.935 540.159 81.6011 546.749 71.5821Z" fill="black"/>
<path d="M203.563 110.679C87.9306 213.355 133.939 291.111 75.7461 275.397C3.16703 255.811 161.475 7.0537 208.705 67.5594C217.738 79.1453 215.491 100.087 203.578 110.679H203.563Z" fill="black"/>
<path d="M328.619 711.351C328.619 684.473 350.425 662.703 377.312 662.703C404.199 662.703 426.005 684.488 426.005 711.351C426.005 738.214 404.199 760 377.312 760C350.425 760 328.619 738.214 328.619 711.351Z" fill="black"/>
</svg>
