<svg width="760" height="760" viewBox="0 0 760 760" fill="none" xmlns="http://www.w3.org/2000/svg">
<path d="M380.007 677.849C401.264 677.849 418.51 695.119 418.51 716.425C418.51 737.73 401.264 755 380.007 755C358.75 755 341.504 737.73 341.504 716.425C341.504 695.119 358.749 677.849 380.007 677.849ZM619.834 5.01855C631.084 4.73296 639.433 7.82537 645.763 12.7197C652.137 17.6483 656.63 24.5346 659.891 32.0732C663.151 39.6114 665.128 47.6766 666.544 54.833C667.252 58.4131 667.813 61.7245 668.332 64.6475C668.843 67.5257 669.326 70.0931 669.869 72.0332V72.0342C670.488 74.2399 672.578 75.3933 674.147 76.0186C675.9 76.7166 678.045 77.1621 680.153 77.4463C684.371 78.0147 689.045 78.0109 691.514 77.7129H691.517C727.814 73.2939 757.059 98.4251 757.098 135.899L757.5 525.625C757.538 557.18 732.57 584.118 699.72 584.575L698.942 584.581L482.961 584.85C477.644 584.85 470.797 586.52 464.446 588.867C458.086 591.218 451.88 594.376 447.896 597.583C407.401 630.155 353.427 630.298 312.788 598.069H312.787C308.096 594.352 301.225 591.129 294.191 588.832C287.145 586.531 279.665 585.072 273.662 585.051H273.661L59.5059 584.419H59.5049C31.5903 584.341 2.68754 561.768 2.6748 530.999L2.5 132.238C2.49355 116.332 7.63406 104.982 15.2109 96.8154C22.8389 88.5939 33.0905 83.4374 43.5117 80.2686C53.9231 77.1028 64.3535 75.967 72.1553 75.6855C76.0508 75.545 79.2642 75.6187 81.459 75.752C82.5625 75.8189 83.3786 75.8997 83.8809 75.9697C84.1438 76.0064 84.2489 76.0304 84.249 76.0303C84.2415 76.0283 84.2059 76.0187 84.1523 76C84.1098 75.9852 83.9891 75.942 83.8379 75.8594C83.7591 75.8163 83.3092 75.5785 82.9648 75.0439C82.762 74.7292 82.5555 74.2447 82.5713 73.6357C82.5741 73.5286 82.5855 73.4255 82.6006 73.3262C83.8414 73.4244 84.6519 73.5391 84.9463 73.6309L87.043 75.2432C88.2024 73.7466 88.9449 71.3869 89.5576 68.9609C90.2 66.4172 90.8189 63.2528 91.5195 59.8301C92.9373 52.904 94.7484 44.6239 97.9648 36.6299C101.179 28.6414 105.741 21.0844 112.564 15.5176C119.345 9.98616 128.53 6.2777 141.283 6.24219C179.238 6.14204 225.703 12.2723 269.045 26.2363C312.424 40.2121 352.407 61.9477 377.71 92.8682L379.687 95.2832L381.611 92.8271C405.661 62.149 446.079 40.6389 490.259 26.5645C533.693 12.7276 580.441 6.18071 618.05 5.06738L619.834 5.01855ZM88.7646 127.371C77.7137 123.264 63.1338 123.844 50.3525 131.361L49.1191 132.087V133.517L49.1602 522.14C49.1602 524.003 50.263 525.793 51.3145 527.134C52.4624 528.598 53.9883 530.069 55.6055 531.37C57.2273 532.675 59.0164 533.87 60.7305 534.752C62.3629 535.592 64.2327 536.31 65.9268 536.311H308.021L299.591 531.625C249.201 503.622 193.404 496.149 136.792 490.998H136.791C110.297 488.59 91.7914 466.294 91.7139 438.006L90.8818 129.894L90.877 128.188L89.2881 127.57L88.7646 127.371ZM619.415 52.8057C605.54 51.3447 585.264 52.8625 562.771 56.8291C540.233 60.8034 515.293 67.2676 492.036 75.8037C468.804 84.3307 447.119 94.9734 431.186 107.361C415.315 119.7 404.691 134.142 404.658 150.305L403.975 505.772L403.965 510.366L407.828 507.879C473.321 465.702 539.451 449.448 618.425 445.336L620.789 445.213L620.794 442.845L621.653 55.2979L621.658 53.042L619.415 52.8057ZM264.907 74.126C222.211 58.6926 173.594 52.2282 140.735 53.6953L138.35 53.8018L138.347 56.1895L137.877 419.872V419.875C137.877 423.472 138.132 428.276 138.977 432.521C139.398 434.638 139.986 436.721 140.82 438.476C141.633 440.185 142.831 441.9 144.65 442.814L144.652 442.815C146.693 443.837 150.296 444.903 153.761 445.731C157.265 446.569 160.995 447.25 163.396 447.405H163.4C232.351 451.711 294.382 469.926 352.286 508L352.912 508.411H356.186L356.174 505.899L354.415 150.244L354.414 149.929L354.334 149.623L354.11 148.791C349.309 131.362 337.651 116.596 322.076 104.32C306.255 91.8506 286.266 81.8465 264.907 74.126ZM711.256 131.933L710.139 131.191C704.151 127.219 696.815 125.095 689.708 124.646C682.617 124.197 675.526 125.402 670.047 128.343L668.732 129.048L668.729 130.539L668.018 436.46C667.94 468.019 646.086 491.749 615.328 491.916H615.229L615.131 491.925C560.952 496.503 508.787 504.856 462.222 531.108L453.892 535.805L463.454 535.786L708.868 535.315L711.364 535.311L711.363 532.814L711.256 133.274V131.933Z" fill="black" stroke="black" stroke-width="5"/>
</svg>
