<svg width="760" height="760" viewBox="0 0 760 760" fill="none" xmlns="http://www.w3.org/2000/svg">
<g clip-path="url(#clip0_50_850)">
<path d="M254.128 527.945C258.63 528.582 263.144 528.883 267.623 528.883C298.2 528.883 327.657 514.507 348.375 488.908C364.506 468.962 376.364 446.767 384.61 421.071L407.423 349.914C419.064 313.332 427.009 298.703 432.137 293.398C441.599 303.311 452.374 332.134 456.166 342.275L459.512 351.262C471.49 383.442 485.07 419.916 507.894 443.266C520.751 456.427 537.568 463.741 555.241 463.874C573.43 464.234 589.983 456.908 603.129 443.856C620.271 426.834 629.661 408.536 639.592 389.18C645.72 377.246 652.052 364.916 660.503 352.477C663.862 347.533 669.062 344.441 675.972 343.274C692.2 340.543 703.696 327.13 703.913 310.673C704.094 295.768 694.042 279.66 676.887 278.517C652.582 276.953 628.421 288.418 610.544 310.144C598.494 324.772 590.428 341.169 583.073 356.086C564.402 394.016 557.167 397.649 556.348 397.986C552.315 397.144 542.408 382.07 538.459 372.098L513.263 308.291C502.453 280.899 491.269 252.569 464.653 235.39C439.517 219.162 407.495 223.613 386.741 246.169C375.774 258.078 366.601 272.923 358.692 291.545C349.459 313.271 343.199 334.36 337.131 354.787C332.063 371.833 326.827 389.469 319.808 407.85C314.042 422.948 306.193 436.626 296.466 448.523C288.774 457.943 278.385 462.731 265.588 462.743C246.231 462.755 232.086 473.943 229.57 491.242C228.282 500.096 230.81 510.02 236.167 517.154C240.717 523.217 246.929 526.958 254.14 527.957L254.128 527.945Z" fill="black"/>
<path d="M164.84 534.272C187.231 534.272 205.445 516.083 205.445 493.732C205.445 471.38 187.231 453.179 164.84 453.179C142.449 453.179 124.235 471.368 124.235 493.732C124.235 516.095 142.449 534.272 164.84 534.272Z" fill="black"/>
<path d="M729.229 631.125L63.1167 630.945L65.5725 101.172C65.6568 83.7532 52.7157 68.2347 36.7168 66.5625C29.4457 65.949 19.3577 69.8948 12.0505 76.4751C5.5498 82.3217 1.95038 89.4915 1.9263 96.6613L0.00017598 653.753C-0.0359388 663.281 5.48961 675.251 13.7599 683.539C20.104 689.903 27.1464 693.259 34.1045 693.259L726.148 693.5C736.067 693.5 744.939 690.072 751.115 683.852C756.917 678.018 760.059 670.042 759.999 661.392C759.891 647.402 746.432 631.137 729.253 631.137L729.229 631.125Z" fill="black"/>
</g>
<defs>
<clipPath id="clip0_50_850">
<rect width="760" height="760" fill="white"/>
</clipPath>
</defs>
</svg>
