<svg width="745" height="156" viewBox="0 0 745 156" fill="none" xmlns="http://www.w3.org/2000/svg">
<path d="M84.84 50.97C76.4 46.08 66.81 43.61 56.35 43.61C45.89 43.61 36.07 46.17 27.61 51.21C19.19 56.23 12.42 63.04 7.48999 71.44C2.51999 79.89 0 89.34 0 99.54C0 109.74 2.43999 119.18 7.23999 127.68C12.04 136.18 18.68 143.04 26.96 148.07C35.28 153.13 44.75 155.69 55.11 155.69C65.47 155.69 74.06 153.3 81.91 148.6C86.48 145.86 90.52 142.5 93.99 138.57V153.84H112.69V99.55C112.69 89.22 110.14 79.66 105.1 71.13C100.07 62.64 93.25 55.86 84.83 50.98L84.84 50.97ZM74.97 132.07C69.45 135.47 63.19 137.19 56.36 137.19C49.53 137.19 43.1 135.47 37.66 132.08C32.11 128.63 27.57 123.99 24.17 118.31C20.82 112.72 19.13 106.41 19.13 99.54C19.13 92.67 20.83 86.57 24.18 80.98C27.56 75.31 32.09 70.72 37.63 67.33C43.09 64 49.39 62.31 56.36 62.31C63.33 62.31 69.47 64.01 75 67.34C80.59 70.72 85.11 75.3 88.43 80.95C91.72 86.56 93.39 92.81 93.39 99.54C93.39 106.27 91.72 112.73 88.43 118.34C85.1 124.01 80.58 128.63 74.98 132.07H74.97Z" fill="black"/>
<path d="M173.58 0H154.26V153.83H173.58V0Z" fill="black"/>
<path d="M288 50.39C280.29 45.75 271.13 43.4 260.79 43.4C250.45 43.4 241.08 45.98 233.07 51.06C225.13 56.11 218.84 62.95 214.39 71.41C209.97 79.82 207.72 89.28 207.72 99.54C207.72 109.8 210.16 119.59 214.96 128.09C219.77 136.6 226.45 143.43 234.82 148.4C243.2 153.37 252.7 155.89 263.04 155.89C272.64 155.89 281.57 153.67 289.58 149.29C297.66 144.88 304.25 138.27 309.15 129.64L311.32 125.84L295.55 117.17L293.44 120.84C290.15 126.57 285.97 130.62 280.68 133.21C275.27 135.85 269.26 137.19 262.83 137.19C255.36 137.19 248.76 135.32 243.21 131.64C237.59 127.92 233.22 122.83 230.22 116.51C228.9 113.74 227.94 110.82 227.34 107.77H312.6V96.46C312.6 86.32 310.42 77.18 306.11 69.3C301.78 61.39 295.69 55.03 287.99 50.4L288 50.39ZM243.94 66.46C248.66 63.71 254.33 62.31 260.79 62.31C267.25 62.31 272.66 63.66 277.55 66.31C282.45 68.97 286.21 72.62 289.05 77.45C291.22 81.15 292.61 85.38 293.19 90.08H227.87C228.85 85.79 230.42 81.75 232.55 78.02C235.37 73.09 239.2 69.2 243.94 66.44V66.46Z" fill="black"/>
<path d="M723.36 71.12C718.33 62.63 711.51 55.85 703.09 50.97C694.65 46.08 685.06 43.61 674.6 43.61C664.14 43.61 654.32 46.17 645.86 51.21C637.44 56.23 630.67 63.04 625.74 71.44C620.77 79.89 618.25 89.34 618.25 99.54C618.25 109.74 620.69 119.18 625.49 127.68C630.29 136.18 636.93 143.04 645.21 148.07C653.53 153.13 663 155.69 673.36 155.69C683.72 155.69 692.31 153.3 700.16 148.6C704.73 145.86 708.77 142.5 712.24 138.57V153.84H730.94V99.55C730.94 89.22 728.39 79.66 723.35 71.13L723.36 71.12ZM693.22 132.07C687.7 135.47 681.44 137.19 674.61 137.19C667.78 137.19 661.35 135.47 655.91 132.08C650.36 128.63 645.82 123.99 642.42 118.31C639.07 112.72 637.38 106.41 637.38 99.54C637.38 92.67 639.08 86.57 642.43 80.98C645.81 75.31 650.34 70.72 655.88 67.33C661.34 64 667.64 62.31 674.61 62.31C681.58 62.31 687.72 64.01 693.25 67.34C698.84 70.72 703.36 75.3 706.68 80.95C709.97 86.56 711.64 92.81 711.64 99.54C711.64 106.27 709.97 112.73 706.68 118.34C703.35 124.01 698.83 128.63 693.23 132.07H693.22Z" fill="black"/>
<path d="M735 62.03C740.153 62.03 744.33 57.8528 744.33 52.7C744.33 47.5472 740.153 43.37 735 43.37C729.847 43.37 725.67 47.5472 725.67 52.7C725.67 57.8528 729.847 62.03 735 62.03Z" fill="black"/>
<path d="M445.95 155.23C429.87 155.23 420.58 143.37 415.62 133.43L386.43 74.92C384.43 70.9 380.9 68.1 376.99 67.42C376.56 67.35 376.06 67.3 375.52 67.3C371.04 67.3 364.41 70.23 364.37 76.51L363.97 153.91H344.16L343.68 73.29C343.59 57.47 353.44 45.66 368.19 43.91C369.81 43.72 371.47 43.62 373.12 43.62C385.55 43.62 395.61 48.75 400.02 57.35L433.28 122.07C434.57 124.58 436.97 129.24 441.65 130.33C442.58 130.55 443.58 130.65 444.63 130.65C451.03 130.65 455.55 126.9 455.61 121.52L456.26 68.16C456.44 53.56 469.85 44.22 482.71 43.63C483.31 43.6 483.89 43.59 484.48 43.59C501.48 43.59 510.86 55.08 515.74 64.72L545.51 123.5C547.35 127.14 550.63 129.82 554.29 130.68C554.92 130.83 555.61 130.9 556.35 130.9C561.89 130.9 567.64 127.48 567.65 121.77L567.81 44.78H588.2L587.91 128.1C587.86 140.53 578.39 151.58 565.39 154.37C562.95 154.89 560.47 155.16 558.02 155.16C545.98 155.16 535.64 148.97 530.37 138.61L497.64 74.22C495.62 70.24 491.1 68.15 487.51 67.85L486.87 67.82C482.33 67.82 475.97 71.54 475.91 77.59L475.36 130.23C475.22 143.36 463.76 152.41 452.5 154.56C450.27 154.99 448.06 155.2 445.93 155.2L445.95 155.23Z" fill="black"/>
</svg>
