<svg width="800" height="800" viewBox="0 0 800 800" fill="none" xmlns="http://www.w3.org/2000/svg">
<path d="M245.47 171.71C199.41 198.98 162.63 235.96 136.18 281.64C109.68 327.43 96.24 379.41 96.24 436.15C96.24 492.89 110.11 546.13 137.46 592.03C164.7 637.67 201.62 674.39 247.21 701.15C293.02 728.11 344.31 741.77 399.62 741.77C454.93 741.77 506.15 728.55 552.23 702.49C598.35 676.44 635.55 640.45 662.8 595.54C690.22 550.39 704.13 499.03 704.13 442.84C704.13 386.65 691.19 340.06 665.67 297.49C650.79 272.72 632.59 250.81 611.25 231.98H694.09V130.53H399.62C343.58 130.53 291.72 144.39 245.47 171.71ZM576.02 335.2C594.45 365.12 603.79 399.08 603.79 436.15C603.79 473.22 594.47 508.04 576.08 537.58C557.34 567.7 532.23 592.31 501.39 610.73C471.07 628.88 436.83 638.08 399.61 638.08C362.39 638.08 329.29 628.89 298.97 610.72C268.24 592.37 243.33 567.8 224.92 537.75C206.84 508.14 197.68 473.96 197.68 436.16C197.68 398.36 206.87 365.04 224.97 335.06C243.32 304.74 268.16 280.22 298.8 262.24C329.22 244.38 363.14 235.33 399.61 235.33C436.08 235.33 471.14 244.38 501.55 262.24C532.3 280.28 557.34 304.83 576.02 335.21V335.2Z" fill="black"/>
<path d="M145.59 159.18C173.53 159.18 196.18 136.53 196.18 108.59C196.18 80.6499 173.53 58 145.59 58C117.65 58 95 80.6499 95 108.59C95 136.53 117.65 159.18 145.59 159.18Z" fill="black"/>
</svg>
