<svg xmlns="http://www.w3.org/2000/svg" viewBox="0 0 120 36" fill="none" aria-hidden="true">
  <path fill="#95A09A" d="M18.5 28.5c-6.2 0-11.2-4.2-11.2-10.5S12.3 7.5 18.5 7.5c3.4 0 6.4 1.4 8.5 3.7l-2.8 2.4c-1.4-1.5-3.2-2.3-5.3-2.3-3.8 0-6.8 3.1-6.8 7.2s3 7.2 6.8 7.2c2.4 0 4.5-1.1 5.9-2.9l2.6 2.2c-2.2 2.7-5.5 4.2-9.4 4.2z"/>
  <path fill="#FF9900" d="M38 12h4.2l1.8 5.4L45.8 12H50l-4.8 16.6h-3.6L38 12zm14.2 0h3.6v13.6h7.1V28h-10.7V12zm14.2 0h9.5c3.3 0 5.5 2.1 5.5 5.4 0 3.4-2.2 5.5-5.6 5.5h-9.4V12zm3.6 2.9v7.8h5.4c1.7 0 2.7-1 2.7-2.8 0-1.9-1-3-2.8-3h-5.3z"/>
  <path fill="#95A09A" d="M38 26.5c0-5.8 4.4-10.5 11.8-10.5 2.2 0 4.2.5 6 1.4l-1.4 3.1c-1.4-.7-2.9-1.1-4.5-1.1-4 0-6.8 2.5-6.8 6.2 0 3.6 2.8 6.1 6.7 6.1 1.7 0 3.3-.4 4.7-1.2l1.4 3.2c-1.9 1-4.1 1.5-6.4 1.5-7.4 0-11.8-4.6-11.8-10.7z"/>
</svg>
