<svg xmlns="http://www.w3.org/2000/svg" viewBox="0 0 160 40" fill="none" aria-hidden="true">
  <ellipse cx="20" cy="20" rx="18" ry="18" fill="#FFE600" opacity="0.85"/>
  <path fill="#2D3277" d="M12 22c2.5-3.5 6-5.5 10-5.5 2.2 0 4.2.7 5.8 2l-2.2 2.2c-1-.9-2.2-1.4-3.6-1.4-2.5 0-4.7 1.3-6 3.3l-4 1.4z"/>
  <path fill="#95A09A" d="M44 12h3.6v16.6H44V12zm10.5 0h9.4c3.3 0 5.5 2 5.5 5.2 0 3.2-2.2 5.3-5.6 5.3h-5.3V12zm3.6 2.8v4.8h5.1c1.4 0 2.2-.8 2.2-2.2 0-1.5-.8-2.6-2.3-2.6h-5zm12.8-2.8h9.7c3.1 0 5 1.5 5 3.9 0 1.6-.9 2.9-2.5 3.5 1.9.5 3.1 2 3.1 4.1 0 2.7-2.1 4.4-5.6 4.4h-9.7V12zm3.6 2.8v3.5h5.1c1.2 0 1.8-.6 1.8-1.6 0-1-.6-1.7-1.8-1.7h-5.1zm0 6.4v4.1h5.7c1.4 0 2.1-.7 2.1-2 0-1.2-.7-2.1-2.2-2.1h-5.6z"/>
</svg>
