<svg xmlns="http://www.w3.org/2000/svg" viewBox="0 0 108 124" fill="none" aria-hidden="true">
  <path fill="#95A09A" d="M54 8c-1.2 0-2.3.3-3.3.8L12.5 28.2c-2.1 1-3.5 3.1-3.5 5.5v56.6c0 2.4 1.4 4.5 3.5 5.5l38.2 19.4c2 1 4.3 1 6.3 0l38.2-19.4c2.1-1 3.5-3.1 3.5-5.5V33.7c0-2.4-1.4-4.5-3.5-5.5L57.3 8.8c-1-.5-2.1-.8-3.3-.8z"/>
  <path fill="#FBFBF4" d="M54 22 24.5 37v44.5L54 97l29.5-15.5V37L54 22z"/>
  <path fill="#95A09A" d="M54 35.5c8.8 0 16 7.2 16 16s-7.2 16-16 16-16-7.2-16-16 7.2-16 16-16z"/>
</svg>
