<svg xmlns="http://www.w3.org/2000/svg" viewBox="0 0 130 34" fill="none" aria-hidden="true">
  <path fill="#6B6B6B" d="M17 8c-4.4 0-8 3.6-8 8s3.6 8 8 8 8-3.6 8-8-3.6-8-8-8zm0 13c-2.8 0-5-2.2-5-5s2.2-5 5-5 5 2.2 5 5-2.2 5-5 5z"/>
  <path fill="#6B6B6B" d="M32 11h3.6v13.6H32V11zm8.5 0h9.5c3.3 0 5.5 2.1 5.5 5.4 0 3.4-2.2 5.5-5.6 5.5H41V11zm3.6 2.9v7.8h5.4c1.7 0 2.7-1 2.7-2.8 0-1.9-1-3-2.8-3h-5.3zm17.5-2.9h9.8c3.1 0 5.1 1.5 5.1 4 0 1.7-1 3-2.7 3.5 2 .5 3.2 2 3.2 4.2 0 2.8-2.2 4.5-5.7 4.5H69V11zm3.6 2.9v3.6h5.2c1.2 0 1.9-.6 1.9-1.7 0-1.1-.7-1.8-1.9-1.8h-5.2zm0 6.5v4.2h5.8c1.4 0 2.2-.7 2.2-2 0-1.3-.8-2.2-2.3-2.2h-5.7zm17.5-9.4h3.6v10.4l6.8-10.4h4.2v16.6h-3.6V17.2l-6.8 10.4h-4.2V11z"/>
</svg>
