<svg xmlns="http://www.w3.org/2000/svg" viewBox="0 0 150 34" fill="none" aria-hidden="true">
  <path fill="#6B6B6B" d="M4 11h5.2l2.8 10.4L15.8 11h4.8l3.8 10.4L27.2 11H32l-5.8 16.6h-5.4l-3.6-9.8-3.6 9.8H8.6L4 11zm30.5 0h9.4c3.4 0 5.6 2 5.6 5.1 0 3.2-2.2 5.3-5.7 5.3h-5.7V11zm3.6 2.8v4.8h5.2c1.4 0 2.2-.8 2.2-2.2 0-1.5-.8-2.6-2.3-2.6h-5.1zm12.8-2.8h9.8c3.1 0 5.1 1.5 5.1 4 0 1.7-1 3-2.7 3.5 2 .5 3.2 2 3.2 4.2 0 2.8-2.2 4.5-5.7 4.5h-9.7V11zm3.6 2.9v3.6h5.2c1.2 0 1.9-.6 1.9-1.7 0-1.1-.7-1.8-1.9-1.8h-5.2zm0 6.5v4.2h5.8c1.4 0 2.2-.7 2.2-2 0-1.3-.8-2.2-2.3-2.2h-5.7zm17.5-9.4h3.6v13.6h7.1V27h-10.7V11zm14.2 0h4.2l6.2 16.6h-3.8l-1.2-3.4h-7.4l-1.2 3.4H73l6-16.6zm3.4 10.2-2.2-6.2-2.2 6.2h4.4z"/>
</svg>
